<svg width="392" height="392" viewBox="0 0 392 392" fill="none" xmlns="http://www.w3.org/2000/svg">
<g filter="url(#filter0_d_143_138)">
<rect x="4" width="384" height="384" fill="#6E56CF"/>
</g>
<path d="M129 281.2V102H206.824C218.088 102 227.901 103.963 236.264 107.888C244.627 111.813 251.112 117.36 255.72 124.528C260.328 131.696 262.632 140.144 262.632 149.872V152.944C262.632 163.696 260.072 172.4 254.952 179.056C249.832 185.712 243.517 190.576 236.008 193.648V198.256C242.835 198.597 248.125 200.987 251.88 205.424C255.635 209.691 257.512 215.408 257.512 222.576L262.632 281.2H223.72V227.44C223.72 223.344 222.611 220.016 220.392 217.456C218.344 214.896 214.845 213.616 209.896 213.616H162.792V281.2H129ZM162.792 182.896H203.24C211.261 182.896 217.491 180.763 221.928 176.496C226.536 172.059 228.84 166.256 228.84 159.088V156.528C228.84 149.36 226.621 143.643 222.184 139.376C217.747 134.939 211.432 132.72 203.24 132.72H162.792V182.896Z" fill="#FAFAF9"/>
<defs>
<filter id="filter0_d_143_138" x="0" y="0" width="392" height="392" filterUnits="userSpaceOnUse" color-interpolation-filters="sRGB">
<feFlood flood-opacity="0" result="BackgroundImageFix"/>
<feColorMatrix in="SourceAlpha" type="matrix" values="0 0 0 0 0 0 0 0 0 0 0 0 0 0 0 0 0 0 127 0" result="hardAlpha"/>
<feOffset dy="4"/>
<feGaussianBlur stdDeviation="2"/>
<feComposite in2="hardAlpha" operator="out"/>
<feColorMatrix type="matrix" values="0 0 0 0 0 0 0 0 0 0 0 0 0 0 0 0 0 0 0.25 0"/>
<feBlend mode="normal" in2="BackgroundImageFix" result="effect1_dropShadow_143_138"/>
<feBlend mode="normal" in="SourceGraphic" in2="effect1_dropShadow_143_138" result="shape"/>
</filter>
</defs>
</svg>
