<svg width="71" height="32" viewBox="0 0 71 32" fill="none" xmlns="http://www.w3.org/2000/svg">
<path d="M9.08126 27.766C9.46914 27.8428 9.87316 27.8837 10.2908 27.8837V32C9.6035 32 8.93201 31.9324 8.28244 31.8038L9.08126 27.766ZM12.2991 31.8038C11.6495 31.9323 10.9781 32 10.2908 32V27.8837C10.7084 27.8837 11.1124 27.8428 11.5003 27.766L12.2991 31.8038ZM5.15387 25.1369C5.60585 25.8121 6.18795 26.3942 6.86306 26.8461L4.57313 30.2665C3.45091 29.5152 2.48474 28.549 1.73343 27.4268L5.15387 25.1369ZM18.8481 27.4268C18.0968 28.549 17.1306 29.5152 16.0084 30.2665L13.7185 26.8461C14.3936 26.3942 14.9757 25.8121 15.4277 25.1369L18.8481 27.4268ZM0 21.7092C0 21.0219 0.067588 20.3504 0.196093 19.7009L4.23396 20.4997C4.15722 20.8876 4.11632 21.2916 4.11632 21.7092C4.11632 22.1268 4.15722 22.5309 4.23396 22.9187L0.196093 23.7175C0.0675957 23.068 0 22.3965 0 21.7092ZM20.5816 21.7092C20.5816 22.3965 20.5139 23.068 20.3854 23.7175L16.3476 22.9187C16.4244 22.5309 16.4653 22.1268 16.4653 21.7092C16.4653 21.2916 16.4244 20.8876 16.3476 20.4997L20.3854 19.7009C20.5139 20.3504 20.5816 21.0219 20.5816 21.7092ZM6.86306 16.5723C6.18795 17.0243 5.60585 17.6064 5.15387 18.2815L1.73343 15.9916C2.48474 14.8693 3.45091 13.9032 4.57313 13.1519L6.86306 16.5723ZM16.0084 13.1519C17.1306 13.9032 18.0968 14.8693 18.8481 15.9916L15.4277 18.2815C14.9757 17.6064 14.3936 17.0243 13.7185 16.5723L16.0084 13.1519ZM10.2908 11.4184C10.978 11.4184 11.6495 11.486 12.2991 11.6145L11.5003 15.6524C11.1124 15.5757 10.7084 15.5347 10.2908 15.5347C9.87316 15.5347 9.46914 15.5757 9.08126 15.6524L8.28244 11.6145C8.932 11.486 9.60351 11.4184 10.2908 11.4184Z" fill="white"/>
<path d="M50.4676 31.162C49.7929 31.162 49.195 31.0424 48.6741 30.8033C48.1531 30.5642 47.7432 30.214 47.4442 29.7528C47.1539 29.2831 47.0087 28.7151 47.0087 28.049V27.7287H48.3794V28.049C48.3794 28.681 48.5673 29.155 48.9431 29.471C49.3274 29.787 49.8356 29.945 50.4676 29.945C51.1081 29.945 51.5907 29.8126 51.9152 29.5478C52.2397 29.2745 52.402 28.9244 52.402 28.4974C52.402 28.2155 52.3251 27.9849 52.1714 27.8056C52.0177 27.6262 51.7999 27.4853 51.5181 27.3828C51.2362 27.2718 50.8989 27.1693 50.506 27.0754L50.032 26.9601C49.4598 26.8234 48.9602 26.6569 48.5331 26.4604C48.1147 26.2555 47.7901 25.9865 47.5595 25.6534C47.3289 25.3203 47.2136 24.8933 47.2136 24.3723C47.2136 23.8428 47.3417 23.3901 47.598 23.0144C47.8627 22.6386 48.2257 22.3482 48.6869 22.1432C49.1481 21.9383 49.6904 21.8358 50.3138 21.8358C50.9373 21.8358 51.4924 21.9425 51.9792 22.156C52.4746 22.3696 52.8632 22.6856 53.145 23.104C53.4269 23.5225 53.5678 24.0478 53.5678 24.6798V25.1409H52.197V24.6798C52.197 24.2954 52.1159 23.9837 51.9536 23.7446C51.7999 23.5054 51.5821 23.3304 51.3003 23.2193C51.0184 23.1083 50.6896 23.0528 50.3138 23.0528C49.7673 23.0528 49.3402 23.1681 49.0328 23.3987C48.7339 23.6207 48.5844 23.9325 48.5844 24.3339C48.5844 24.6072 48.6484 24.8335 48.7766 25.0128C48.9132 25.1836 49.1096 25.3246 49.3658 25.4356C49.6221 25.5466 49.9423 25.6448 50.3267 25.7302L50.8007 25.8455C51.3814 25.9736 51.8938 26.1402 52.338 26.3452C52.7821 26.5416 53.1322 26.8106 53.3884 27.1522C53.6447 27.4938 53.7728 27.9337 53.7728 28.4717C53.7728 29.0098 53.6361 29.4795 53.3628 29.8809C53.0981 30.2823 52.718 30.5983 52.2227 30.8289C51.7273 31.051 51.1423 31.162 50.4676 31.162Z" fill="white"/>
<path d="M38.5911 30.9826V29.7528H39.7953V23.2449H38.5911V22.0151H43.139C43.677 22.0151 44.1467 22.1091 44.5481 22.2969C44.9495 22.4763 45.2613 22.7368 45.4833 23.0784C45.7139 23.4115 45.8292 23.8086 45.8292 24.2698V24.3979C45.8292 24.8078 45.7524 25.1452 45.5986 25.4099C45.4449 25.6747 45.257 25.8797 45.0349 26.0249C44.8214 26.1701 44.6165 26.2725 44.42 26.3323V26.5373C44.6165 26.5885 44.8257 26.691 45.0478 26.8448C45.2784 26.9899 45.4705 27.1949 45.6242 27.4597C45.7865 27.7244 45.8676 28.0703 45.8676 28.4973V28.6254C45.8676 29.1208 45.7524 29.5435 45.5218 29.8937C45.2912 30.2439 44.9709 30.5129 44.5609 30.7008C44.1595 30.8887 43.6941 30.9826 43.1646 30.9826H38.5911ZM41.1917 29.7272H42.998C43.4592 29.7272 43.8222 29.6161 44.087 29.3941C44.3517 29.172 44.4841 28.8646 44.4841 28.4717V28.3564C44.4841 27.9636 44.3517 27.6561 44.087 27.434C43.8307 27.212 43.4678 27.101 42.998 27.101H41.1917V29.7272ZM41.1917 25.8327H42.998C43.4336 25.8327 43.7838 25.7259 44.0485 25.5124C44.3133 25.2904 44.4457 24.9915 44.4457 24.6157V24.4876C44.4457 24.1118 44.3133 23.8171 44.0485 23.6036C43.7923 23.3816 43.4421 23.2706 42.998 23.2706H41.1917V25.8327Z" fill="white"/>
<path d="M30.1635 30.9826L32.7257 22.0151H35.1597L37.7091 30.9826H36.2871L35.6978 28.8688H32.1876L31.5983 30.9826H30.1635ZM32.5335 27.5878H35.3519L34.0452 22.8734H33.8402L32.5335 27.5878Z" fill="white"/>
<path d="M23.8612 30.9826V22.0151H25.2448V29.7272H29.562V30.9826H23.8612Z" fill="white"/>
<path d="M63.3039 19.473L65.8661 10.5055H68.3001L70.8494 19.473H69.4274L68.8382 17.3592H65.328L64.7387 19.473H63.3039ZM65.6739 16.0781H68.4923L67.1856 11.3638H66.9806L65.6739 16.0781Z" fill="white"/>
<path d="M57.0023 19.473V10.5055H58.3859V18.2175H62.7031V19.473H57.0023Z" fill="white"/>
<path d="M51.7509 19.6524C50.6492 19.6524 49.7738 19.3449 49.1247 18.73C48.4756 18.1065 48.1511 17.2098 48.1511 16.0397V13.9388C48.1511 12.7687 48.4756 11.8762 49.1247 11.2613C49.7738 10.6379 50.6492 10.3261 51.7509 10.3261C52.8526 10.3261 53.728 10.6379 54.3771 11.2613C55.0347 11.8762 55.3635 12.7687 55.3635 13.9388V16.0397C55.3635 17.2098 55.0347 18.1065 54.3771 18.73C53.728 19.3449 52.8526 19.6524 51.7509 19.6524ZM51.7509 18.4097C52.4598 18.4097 53.0063 18.2047 53.3907 17.7948C53.775 17.3763 53.9672 16.8084 53.9672 16.091V13.8875C53.9672 13.1701 53.775 12.6065 53.3907 12.1965C53.0063 11.778 52.4598 11.5688 51.7509 11.5688C51.0591 11.5688 50.5168 11.778 50.1239 12.1965C49.7311 12.6065 49.5346 13.1701 49.5346 13.8875V16.091C49.5346 16.8084 49.7311 17.3763 50.1239 17.7948C50.5168 18.2047 51.0591 18.4097 51.7509 18.4097Z" fill="white"/>
<path d="M40.663 19.473V10.5055H44.2244C44.771 10.5055 45.2578 10.6165 45.6849 10.8386C46.1204 11.0521 46.4578 11.3595 46.6969 11.7609C46.9446 12.1538 47.0684 12.6278 47.0684 13.1829V13.3495C47.0684 13.9046 46.9403 14.3829 46.6841 14.7843C46.4364 15.1857 46.0991 15.4931 45.672 15.7066C45.245 15.9201 44.7625 16.0269 44.2244 16.0269H42.0466V19.473H40.663ZM42.0466 14.7714H44.0835C44.5703 14.7714 44.9589 14.6433 45.2493 14.3871C45.5397 14.1309 45.6849 13.7808 45.6849 13.3366V13.2085C45.6849 12.7559 45.5397 12.4015 45.2493 12.1453C44.9589 11.889 44.5703 11.7609 44.0835 11.7609H42.0466V14.7714Z" fill="white"/>
<path d="M35.4495 19.6523C34.7406 19.6523 34.13 19.5242 33.6175 19.268C33.1136 19.0118 32.7208 18.6446 32.4389 18.1663C32.1656 17.6795 32.029 17.0902 32.029 16.3984V10.5055H33.4254V16.4368C33.4254 17.0688 33.6004 17.5556 33.9506 17.8973C34.3008 18.2389 34.8004 18.4097 35.4495 18.4097C36.0985 18.4097 36.5982 18.2389 36.9483 17.8973C37.2985 17.5556 37.4736 17.0688 37.4736 16.4368V10.5055H38.8571V16.3984C38.8571 17.0902 38.7205 17.6795 38.4472 18.1663C38.1739 18.6446 37.781 19.0118 37.2686 19.268C36.7562 19.5242 36.1498 19.6523 35.4495 19.6523Z" fill="white"/>
<path d="M27.1924 19.6524C26.0992 19.6524 25.2323 19.3449 24.5918 18.73C23.9513 18.1065 23.631 17.2098 23.631 16.0397V13.9388C23.631 12.7687 23.9513 11.8762 24.5918 11.2613C25.2323 10.6379 26.0992 10.3261 27.1924 10.3261C28.2685 10.3261 29.0969 10.6251 29.6777 11.2229C30.267 11.8207 30.5616 12.6363 30.5616 13.6697V13.7466H29.1909V13.6313C29.1909 13.0249 29.0243 12.5296 28.6912 12.1453C28.3667 11.7609 27.8671 11.5688 27.1924 11.5688C26.5091 11.5688 25.9754 11.778 25.591 12.1965C25.2067 12.6065 25.0145 13.1787 25.0145 13.9131V16.0653C25.0145 16.7913 25.2067 17.3635 25.591 17.782C25.9754 18.2005 26.5091 18.4097 27.1924 18.4097C27.8671 18.4097 28.3667 18.2175 28.6912 17.8332C29.0243 17.4404 29.1909 16.945 29.1909 16.3472V16.1294H30.5616V16.3088C30.5616 17.3421 30.267 18.1578 29.6777 18.7556C29.0969 19.3534 28.2685 19.6524 27.1924 19.6524Z" fill="white"/>
<path d="M27.2877 8.49298C27.1737 8.49298 27.0672 8.48222 26.9682 8.46071C26.8693 8.4392 26.7908 8.41553 26.7327 8.38972L26.8876 7.8831C27.0833 7.94334 27.2576 7.96485 27.4103 7.94764C27.5631 7.93258 27.6986 7.86374 27.8169 7.74112C27.9352 7.62065 28.0406 7.43565 28.1331 7.1861L28.3138 6.68271L26.4907 1.67787H27.1134L28.5849 5.876H28.6301L30.1015 1.67787H30.7243L28.6268 7.41844C28.5386 7.65722 28.43 7.85621 28.3009 8.0154C28.1719 8.17674 28.0223 8.29614 27.8524 8.37358C27.6846 8.45318 27.4964 8.49298 27.2877 8.49298Z" fill="white"/>
<path d="M21.6122 6.63439V0.0258026H22.1898V2.62342H22.2414C22.306 2.47498 22.3985 2.32224 22.5189 2.1652C22.6416 2.00816 22.8018 1.87694 22.9997 1.77153C23.1998 1.66397 23.4515 1.61019 23.7548 1.61019C24.1614 1.61019 24.5185 1.71775 24.8261 1.93287C25.1338 2.14584 25.3736 2.44486 25.5457 2.82993C25.7178 3.21285 25.8039 3.65923 25.8039 4.16908C25.8039 4.68107 25.7178 5.1296 25.5457 5.51467C25.3758 5.89974 25.137 6.19984 24.8294 6.41496C24.5239 6.63009 24.1689 6.73765 23.7645 6.73765C23.4633 6.73765 23.2116 6.68387 23.0094 6.5763C22.8093 6.46874 22.648 6.33644 22.5254 6.1794C22.4028 6.02021 22.3081 5.86532 22.2414 5.71474H22.1704V6.63439H21.6122ZM22.1801 4.1594C22.1801 4.55952 22.2393 4.91448 22.3576 5.22426C22.4781 5.53188 22.6502 5.77389 22.8739 5.9503C23.0998 6.12455 23.373 6.21167 23.6935 6.21167C24.0226 6.21167 24.3012 6.12132 24.5293 5.94062C24.7573 5.75776 24.9305 5.51144 25.0488 5.20167C25.1671 4.89189 25.2263 4.54447 25.2263 4.1594C25.2263 3.77863 25.1671 3.43551 25.0488 3.13003C24.9326 2.82456 24.7605 2.58254 24.5325 2.40399C24.3045 2.22329 24.0248 2.13293 23.6935 2.13293C23.3708 2.13293 23.0965 2.22006 22.8707 2.39431C22.6469 2.56641 22.4759 2.80519 22.3576 3.11067C22.2393 3.41399 22.1801 3.76357 22.1801 4.1594Z" fill="white"/>
<path d="M17.6326 1.67785V2.17801H15.2673V1.67785H17.6326ZM16.0062 0.490372H16.5838V5.34032C16.5838 5.54684 16.6193 5.70926 16.6903 5.82758C16.7613 5.94374 16.8538 6.02657 16.9678 6.07605C17.0818 6.12337 17.2034 6.14704 17.3325 6.14704C17.4078 6.14704 17.4723 6.14273 17.5261 6.13413C17.5799 6.12337 17.6272 6.11262 17.6681 6.10186L17.7907 6.62138C17.7347 6.6429 17.6659 6.66226 17.5842 6.67947C17.5024 6.69883 17.4013 6.70851 17.2808 6.70851C17.07 6.70851 16.8667 6.66226 16.671 6.56975C16.4773 6.47725 16.3182 6.33957 16.1934 6.15672C16.0686 5.97386 16.0062 5.74691 16.0062 5.47585V0.490372Z" fill="white"/>
<path d="M14.1602 0.0258026V6.63439H13.5858V0.0258026H14.1602Z" fill="white"/>
<path d="M11.4892 6.6344V1.67796H12.0668V6.6344H11.4892ZM11.7829 0.826073C11.6646 0.826073 11.5634 0.786276 11.4795 0.70668C11.3956 0.624933 11.3537 0.527052 11.3537 0.413037C11.3537 0.299022 11.3956 0.202216 11.4795 0.122621C11.5634 0.0408736 11.6646 0 11.7829 0C11.9012 0 12.0023 0.0408736 12.0862 0.122621C12.1701 0.202216 12.212 0.299022 12.212 0.413037C12.212 0.527052 12.1701 0.624933 12.0862 0.70668C12.0023 0.786276 11.9012 0.826073 11.7829 0.826073Z" fill="white"/>
<path d="M9.38788 4.74015V1.67787H9.96226V6.63431H9.38788V5.81146H9.34271C9.22654 6.06531 9.04261 6.27721 8.79091 6.44715C8.53922 6.61495 8.23159 6.69885 7.86803 6.69885C7.5518 6.69885 7.27106 6.63001 7.02582 6.49233C6.78058 6.3525 6.58804 6.14813 6.44821 5.87923C6.30838 5.61032 6.23846 5.28011 6.23846 4.88859V1.67787H6.81285V4.85309C6.81285 5.24031 6.92686 5.55224 7.15489 5.78888C7.38292 6.02336 7.67549 6.1406 8.0326 6.1406C8.25633 6.1406 8.47145 6.08682 8.67797 5.97926C8.88449 5.8717 9.05444 5.71466 9.18782 5.50814C9.32119 5.29947 9.38788 5.04347 9.38788 4.74015Z" fill="white"/>
<path d="M0.784851 6.63439V0.0258026H1.36246V2.62342H1.41409C1.47863 2.47498 1.57113 2.32224 1.6916 2.1652C1.81422 2.00816 1.97449 1.87694 2.1724 1.77153C2.37247 1.66397 2.62416 1.61019 2.92749 1.61019C3.33407 1.61019 3.69118 1.71775 3.99881 1.93287C4.30643 2.14584 4.5463 2.44486 4.7184 2.82993C4.8905 3.21285 4.97655 3.65923 4.97655 4.16908C4.97655 4.68107 4.8905 5.1296 4.7184 5.51467C4.54845 5.89974 4.30966 6.19984 4.00203 6.41496C3.69656 6.63009 3.3416 6.73765 2.93717 6.73765C2.63599 6.73765 2.3843 6.68387 2.18208 6.5763C1.98202 6.46874 1.82067 6.33644 1.69805 6.1794C1.57543 6.02021 1.48078 5.86532 1.41409 5.71474H1.3431V6.63439H0.784851ZM1.35278 4.1594C1.35278 4.55952 1.41194 4.91448 1.53026 5.22426C1.65073 5.53188 1.82283 5.77389 2.04655 5.9503C2.27243 6.12455 2.54564 6.21167 2.86618 6.21167C3.19532 6.21167 3.4739 6.12132 3.70193 5.94062C3.92997 5.75776 4.10314 5.51144 4.22146 5.20167C4.33978 4.89189 4.39894 4.54447 4.39894 4.1594C4.39894 3.77863 4.33978 3.43551 4.22146 3.13003C4.10529 2.82456 3.93319 2.58254 3.70516 2.40399C3.47713 2.22329 3.19747 2.13293 2.86618 2.13293C2.54349 2.13293 2.26921 2.22006 2.04333 2.39431C1.8196 2.56641 1.64857 2.80519 1.53026 3.11067C1.41194 3.41399 1.35278 3.76357 1.35278 4.1594Z" fill="white"/>
</svg>
