<svg width="351" height="96" viewBox="0 0 351 96" fill="none" xmlns="http://www.w3.org/2000/svg">
<g clip-path="url(#clip0_276_58)">
<g clip-path="url(#clip1_276_58)">
<path d="M42.3583 76.2513C44.1675 76.6092 46.052 76.8 48 76.8V96C44.7942 96 41.6621 95.6845 38.6323 95.0851L42.3583 76.2513ZM57.3674 95.0851C54.3376 95.6844 51.2057 96 48 96V76.8C49.948 76.8 51.8325 76.6092 53.6417 76.2513L57.3674 95.0851ZM24.0396 63.9882C26.1477 67.1371 28.8629 69.8523 32.0118 71.9604L21.3308 87.9144C16.0963 84.4099 11.5897 79.9034 8.08535 74.6689L24.0396 63.9882ZM87.9144 74.6689C84.4099 79.9035 79.9035 84.4099 74.6689 87.9144L63.9882 71.9604C67.1371 69.8523 69.8523 67.1371 71.9604 63.9882L87.9144 74.6689ZM0 48C0 44.7943 0.315255 41.6621 0.914648 38.6323L19.7487 42.3583C19.3908 44.1675 19.2 46.052 19.2 48C19.2 49.948 19.3908 51.8325 19.7487 53.6417L0.914648 57.3674C0.315291 54.3377 0 51.2056 0 48ZM96 48C96 51.2057 95.6844 54.3376 95.0851 57.3674L76.2513 53.6417C76.6092 51.8325 76.8 49.948 76.8 48C76.8 46.052 76.6092 44.1675 76.2513 42.3583L95.0851 38.6323C95.6845 41.6621 96 44.7942 96 48ZM32.0118 24.0396C28.8629 26.1477 26.1477 28.8629 24.0396 32.0118L8.08535 21.3308C11.5897 16.0963 16.0963 11.5897 21.3308 8.08535L32.0118 24.0396ZM74.6689 8.08535C79.9034 11.5897 84.4099 16.0963 87.9144 21.3308L71.9604 32.0118C69.8523 28.8629 67.1371 26.1477 63.9882 24.0396L74.6689 8.08535ZM48 0C51.2056 0 54.3377 0.315291 57.3674 0.914648L53.6417 19.7487C51.8325 19.3908 49.948 19.2 48 19.2C46.052 19.2 44.1675 19.3908 42.3583 19.7487L38.6323 0.914648C41.6621 0.315255 44.7943 0 48 0Z" fill="#FAFAF9"/>
</g>
<g clip-path="url(#clip2_276_58)">
<g clip-path="url(#clip3_276_58)">
<path d="M127.013 48.5644C121.177 48.5644 116.549 46.982 113.129 43.8172C109.71 40.6084 108 35.993 108 29.971V19.1579C108 13.1359 109.71 8.54248 113.129 5.37764C116.549 2.16885 121.177 0.564453 127.013 0.564453C132.758 0.564453 137.181 2.10291 140.281 5.17984C143.427 8.25676 145 12.4546 145 17.7732V18.1688H137.682V17.5754C137.682 14.4546 136.793 11.9051 135.015 9.92709C133.282 7.94907 130.615 6.96006 127.013 6.96006C123.365 6.96006 120.516 8.03698 118.464 10.1908C116.412 12.3007 115.386 15.2458 115.386 19.026V30.1029C115.386 33.8392 116.412 36.7842 118.464 38.9381C120.516 41.0919 123.365 42.1688 127.013 42.1688C130.615 42.1688 133.282 41.1798 135.015 39.2018C136.793 37.1798 137.682 34.6304 137.682 31.5535V30.4326H145V31.3557C145 36.6743 143.427 40.8721 140.281 43.9491C137.181 47.026 132.758 48.5644 127.013 48.5644Z" fill="#FAFAF9"/>
<path d="M168.533 48.5644C164.899 48.5644 161.769 47.8922 159.143 46.5476C156.56 45.2031 154.546 43.2759 153.101 40.7661C151.7 38.2115 151 35.1191 151 31.4888V0.564453H158.158V31.6905C158.158 35.007 159.055 37.5616 160.85 39.3544C162.645 41.1471 165.206 42.0434 168.533 42.0434C171.86 42.0434 174.421 41.1471 176.216 39.3544C178.011 37.5616 178.908 35.007 178.908 31.6905V0.564453H186V31.4888C186 35.1191 185.3 38.2115 183.899 40.7661C182.498 43.2759 180.484 45.2031 177.857 46.5476C175.231 47.8922 172.123 48.5644 168.533 48.5644Z" fill="#FAFAF9"/>
<path d="M192 48.5645V0.564453H210.904C213.805 0.564453 216.389 1.15874 218.656 2.34731C220.968 3.49017 222.759 5.13588 224.028 7.28445C225.343 9.38731 226 11.9245 226 14.8959V15.7873C226 18.7587 225.32 21.3187 223.96 23.4673C222.645 25.6159 220.855 27.2616 218.588 28.4045C216.321 29.5473 213.76 30.1187 210.904 30.1187H199.344V48.5645H192ZM199.344 23.3987H210.156C212.74 23.3987 214.803 22.713 216.344 21.3416C217.885 19.9702 218.656 18.0959 218.656 15.7187V15.033C218.656 12.6102 217.885 10.713 216.344 9.3416C214.803 7.97017 212.74 7.28445 210.156 7.28445H199.344V23.3987Z" fill="#FAFAF9"/>
<path d="M250.467 48.5644C244.815 48.5644 240.324 46.982 236.995 43.8172C233.665 40.6084 232 35.993 232 29.971V19.1579C232 13.1359 233.665 8.54248 236.995 5.37764C240.324 2.16885 244.815 0.564453 250.467 0.564453C256.119 0.564453 260.61 2.16885 263.94 5.37764C267.313 8.54248 269 13.1359 269 19.1579V29.971C269 35.993 267.313 40.6084 263.94 43.8172C260.61 46.982 256.119 48.5644 250.467 48.5644ZM250.467 42.1688C254.104 42.1688 256.908 41.1139 258.879 39.004C260.851 36.8502 261.837 33.9271 261.837 30.2348V18.8941C261.837 15.2018 260.851 12.3007 258.879 10.1908C256.908 8.03698 254.104 6.96006 250.467 6.96006C246.918 6.96006 244.136 8.03698 242.121 10.1908C240.105 12.3007 239.098 15.2018 239.098 18.8941V30.2348C239.098 33.9271 240.105 36.8502 242.121 39.004C244.136 41.1139 246.918 42.1688 250.467 42.1688Z" fill="#FAFAF9"/>
<path d="M275 48.5645V0.564453H282.281V41.8445H305V48.5645H275Z" fill="#FAFAF9"/>
<path d="M311 48.5645L324.582 0.564453H337.486L351 48.5645H343.462L340.338 37.2502H321.73L318.606 48.5645H311ZM323.564 30.393H338.504L331.577 5.15874H330.491L323.564 30.393Z" fill="#FAFAF9"/>
</g>
<g clip-path="url(#clip4_276_58)">
<path d="M108 96V61H113.097V91.1H129V96H108Z" fill="#FAFAF9"/>
<path d="M135 96L145.187 61H154.864L165 96H159.346L157.003 87.75H143.048L140.705 96H135ZM144.423 82.75H155.628L150.433 64.35H149.618L144.423 82.75Z" fill="#FAFAF9"/>
<path d="M171 96V91.2H175.634V65.8H171V61H188.5C190.57 61 192.378 61.3667 193.923 62.1C195.467 62.8 196.667 63.8167 197.521 65.15C198.408 66.45 198.852 68 198.852 69.8V70.3C198.852 71.9 198.556 73.2167 197.965 74.25C197.373 75.2833 196.65 76.0833 195.796 76.65C194.974 77.2167 194.185 77.6167 193.43 77.85V78.65C194.185 78.85 194.991 79.25 195.845 79.85C196.732 80.4167 197.472 81.2167 198.063 82.25C198.688 83.2833 199 84.6333 199 86.3V86.8C199 88.7333 198.556 90.3833 197.669 91.75C196.782 93.1167 195.549 94.1667 193.972 94.9C192.427 95.6333 190.636 96 188.599 96H171ZM181.007 91.1H187.958C189.732 91.1 191.129 90.6667 192.148 89.8C193.167 88.9333 193.676 87.7333 193.676 86.2V85.75C193.676 84.2167 193.167 83.0167 192.148 82.15C191.162 81.2833 189.765 80.85 187.958 80.85H181.007V91.1ZM181.007 75.9H187.958C189.634 75.9 190.981 75.4833 192 74.65C193.019 73.7833 193.528 72.6167 193.528 71.15V70.65C193.528 69.1833 193.019 68.0333 192 67.2C191.014 66.3333 189.667 65.9 187.958 65.9H181.007V75.9Z" fill="#FAFAF9"/>
<path d="M218.142 95.9995C215.579 95.9995 213.307 95.5452 211.328 94.6366C209.348 93.7281 207.791 92.3976 206.655 90.6453C205.552 88.8606 205 86.7027 205 84.1716V82.9548H210.208V84.1716C210.208 86.5729 210.922 88.3738 212.35 89.5745C213.81 90.7751 215.741 91.3755 218.142 91.3755C220.576 91.3755 222.409 90.8725 223.642 89.8665C224.875 88.8281 225.492 87.4977 225.492 85.8752C225.492 84.8044 225.2 83.9282 224.616 83.2468C224.032 82.5654 223.204 82.0299 222.133 81.6405C221.063 81.2187 219.781 80.8293 218.288 80.4723L216.487 80.0343C214.313 79.5151 212.415 78.8823 210.792 78.136C209.202 77.3572 207.969 76.335 207.093 75.0695C206.217 73.8039 205.779 72.1814 205.779 70.202C205.779 68.1901 206.266 66.4703 207.239 65.0425C208.245 63.6147 209.624 62.5114 211.376 61.7326C213.129 60.9538 215.189 60.5645 217.558 60.5645C219.927 60.5645 222.036 60.9701 223.886 61.7813C225.768 62.5926 227.244 63.7932 228.315 65.3832C229.386 66.9733 229.921 68.9689 229.921 71.3702V73.1225H224.713V71.3702C224.713 69.91 224.405 68.7256 223.788 67.817C223.204 66.9084 222.377 66.2432 221.306 65.8213C220.235 65.3995 218.986 65.1885 217.558 65.1885C215.481 65.1885 213.859 65.6266 212.691 66.5027C211.555 67.3464 210.987 68.5309 210.987 70.056C210.987 71.0944 211.23 71.9543 211.717 72.6357C212.236 73.2847 212.983 73.8202 213.956 74.242C214.93 74.6638 216.146 75.037 217.607 75.3615L219.408 75.7996C221.614 76.2863 223.561 76.9191 225.249 77.6979C226.936 78.4442 228.266 79.4664 229.24 80.7644C230.213 82.0624 230.7 83.7335 230.7 85.7779C230.7 87.8222 230.181 89.6069 229.143 91.1321C228.137 92.6572 226.693 93.8579 224.811 94.734C222.928 95.5777 220.706 95.9995 218.142 95.9995Z" fill="#FAFAF9"/>
</g>
</g>
</g>
<defs>
<clipPath id="clip0_276_58">
<rect width="351" height="96" fill="white"/>
</clipPath>
<clipPath id="clip1_276_58">
<rect width="96" height="96" fill="white"/>
</clipPath>
<clipPath id="clip2_276_58">
<rect width="243" height="96" fill="white" transform="translate(108)"/>
</clipPath>
<clipPath id="clip3_276_58">
<rect width="243" height="48" fill="white" transform="translate(108 0.564453)"/>
</clipPath>
<clipPath id="clip4_276_58">
<rect width="122.7" height="35.4351" fill="white" transform="translate(108 60.5645)"/>
</clipPath>
</defs>
</svg>
