<svg width="529" height="128" viewBox="0 0 529 128" fill="none" xmlns="http://www.w3.org/2000/svg">
<g clip-path="url(#clip0_384_248)">
<path d="M106.667 73.1335C106.667 100.061 87.5641 114.228 64 114.228C40.4359 114.228 21.3333 100.061 21.3333 73.1335C21.3333 46.2065 40.4359 24.3778 64 24.3778V0C28.6538 0 0 32.743 0 73.1335C0 113.524 28.6538 128 64 128C99.3462 128 128 113.524 128 73.1335C128 32.743 99.3462 0 64 0V24.3778C87.5641 24.3778 106.667 46.2065 106.667 73.1335Z" fill="#FAFAF9"/>
<g clip-path="url(#clip1_384_248)">
<path d="M164.57 64C164.57 68.9061 165.659 73.2155 167.836 76.9282C170.08 80.6409 172.983 83.5249 176.546 85.5801C180.175 87.5691 184.101 88.5635 188.324 88.5635C191.623 88.5635 194.593 88.1326 197.232 87.2707C199.871 86.4088 202.247 85.2486 204.358 83.7901C206.536 82.2652 208.416 80.5746 210 78.7182V92.6409C207.097 95.0276 203.962 96.8508 200.597 98.1105C197.232 99.3702 193.009 100 187.928 100C182.848 100 178.097 99.1381 173.676 97.4144C169.321 95.6906 165.527 93.2044 162.294 89.9558C159.06 86.7072 156.52 82.895 154.672 78.5193C152.891 74.0773 152 69.2376 152 64C152 58.7624 152.891 53.9558 154.672 49.5801C156.52 45.1381 159.06 41.2928 162.294 38.0442C165.527 34.7956 169.321 32.3094 173.676 30.5856C178.097 28.8619 182.848 28 187.928 28C193.009 28 197.232 28.6298 200.597 29.8895C203.962 31.1492 207.097 32.9724 210 35.3591V49.2818C208.416 47.4254 206.536 45.768 204.358 44.3094C202.247 42.7845 199.871 41.5912 197.232 40.7293C194.593 39.8674 191.623 39.4365 188.324 39.4365C184.101 39.4365 180.175 40.4641 176.546 42.5193C172.983 44.5083 170.08 47.3591 167.836 51.0718C165.659 54.7182 164.57 59.0276 164.57 64Z" fill="#FAFAF9"/>
<path d="M218 28H229.8V74.6946C229.8 79.046 230.933 82.5607 233.2 85.2385C235.533 87.8494 238.967 89.1548 243.5 89.1548C247.967 89.1548 251.367 87.8494 253.7 85.2385C256.033 82.5607 257.2 79.046 257.2 74.6946V28H269V75.1967C269 79.0795 268.367 82.5607 267.1 85.6402C265.9 88.6527 264.167 91.2301 261.9 93.3724C259.633 95.5146 256.933 97.1548 253.8 98.2929C250.667 99.431 247.233 100 243.5 100C239.767 100 236.333 99.431 233.2 98.2929C230.067 97.1548 227.333 95.5146 225 93.3724C222.733 91.2301 221 88.6527 219.8 85.6402C218.6 82.5607 218 79.0795 218 75.1967V28Z" fill="#FAFAF9"/>
<path d="M277 28H289.26V100H277V28ZM284.273 38.6971V28H298.922C304.186 28 308.758 28.9257 312.636 30.7771C316.584 32.56 319.632 35.1314 321.779 38.4914C323.926 41.7829 325 45.7257 325 50.32C325 54.9143 323.926 58.8914 321.779 62.2514C319.632 65.6114 316.584 68.2171 312.636 70.0686C308.758 71.8514 304.186 72.7429 298.922 72.7429H284.273V62.0457H298.922C303.147 62.0457 306.541 61.0514 309.104 59.0629C311.667 57.0743 312.948 54.16 312.948 50.32C312.948 46.48 311.667 43.6 309.104 41.68C306.541 39.6914 303.147 38.6971 298.922 38.6971H284.273Z" fill="#FAFAF9"/>
<path d="M345.38 63.8514C345.38 68.6052 346.37 72.8638 348.351 76.6272C350.398 80.3246 353.204 83.2297 356.769 85.3425C360.334 87.4553 364.395 88.5117 368.95 88.5117C373.572 88.5117 377.633 87.4553 381.132 85.3425C384.697 83.2297 387.47 80.3246 389.451 76.6272C391.498 72.8638 392.521 68.6052 392.521 63.8514C392.521 59.0977 391.531 54.8721 389.55 51.1747C387.569 47.4113 384.796 44.4732 381.231 42.3604C377.732 40.2476 373.638 39.1912 368.95 39.1912C364.395 39.1912 360.334 40.2476 356.769 42.3604C353.204 44.4732 350.398 47.4113 348.351 51.1747C346.37 54.8721 345.38 59.0977 345.38 63.8514ZM333 63.8514C333 58.6355 333.891 53.8487 335.674 49.4911C337.457 45.1334 339.966 41.37 343.201 38.2008C346.502 34.9656 350.331 32.4567 354.689 30.674C359.113 28.8913 363.867 28 368.95 28C374.166 28 378.953 28.8913 383.311 30.674C387.669 32.4567 391.465 34.9656 394.7 38.2008C398.001 41.37 400.543 45.1334 402.326 49.4911C404.109 53.8487 405 58.6355 405 63.8514C405 69.0014 404.109 73.7882 402.326 78.2118C400.543 82.6355 398.034 86.4649 394.799 89.7001C391.564 92.9354 387.735 95.4773 383.311 97.326C378.953 99.1087 374.166 100 368.95 100C363.801 100 359.014 99.1087 354.59 97.326C350.166 95.4773 346.337 92.9354 343.102 89.7001C339.933 86.4649 337.457 82.6355 335.674 78.2118C333.891 73.7882 333 69.0014 333 63.8514Z" fill="#FAFAF9"/>
<path d="M413 28H425.217V89.0971H454V100H413V28Z" fill="#FAFAF9"/>
<path d="M477.575 82.4628L479.73 72.7199H511.564L513.817 82.4628H477.575ZM495.5 51.0907L484.725 76.1299L484.529 78.6631L475.028 100H462L495.5 28L529 100H515.972L506.667 79.2476L506.373 76.4222L495.5 51.0907Z" fill="#FAFAF9"/>
</g>
</g>
<defs>
<clipPath id="clip0_384_248">
<rect width="529" height="128" fill="white"/>
</clipPath>
<clipPath id="clip1_384_248">
<rect width="377" height="72" fill="white" transform="translate(152 28)"/>
</clipPath>
</defs>
</svg>
