<svg width="42" height="32" viewBox="0 0 42 32" fill="none" xmlns="http://www.w3.org/2000/svg">
<path d="M35.5548 2.65263C32.8778 1.42484 30.0072 0.520263 27.0058 0.00217332C26.9512 -0.00782564 26.8966 0.0171623 26.8684 0.0671394C26.4992 0.723494 26.0903 1.57976 25.8039 2.25279C22.5757 1.76969 19.3641 1.76969 16.2021 2.25279C15.9156 1.5648 15.4918 0.723494 15.121 0.0671394C15.0928 0.0188298 15.0382 -0.00615816 14.9836 0.00217332C11.9838 0.518607 9.11323 1.42318 6.43464 2.65263C6.41145 2.66262 6.39157 2.67929 6.37838 2.70093C0.933435 10.8322 -0.558163 18.7636 0.173565 26.5967C0.176876 26.635 0.198397 26.6717 0.228197 26.695C3.82062 29.3321 7.30049 30.933 10.7157 31.9942C10.7704 32.0108 10.8283 31.9909 10.8631 31.9459C11.671 30.8431 12.3911 29.6803 13.0086 28.4575C13.045 28.3858 13.0102 28.3009 12.9358 28.2726C11.7935 27.8394 10.7058 27.3113 9.65953 26.7116C9.57677 26.6633 9.57014 26.545 9.64628 26.4884C9.86645 26.3234 10.0867 26.1518 10.2969 25.9786C10.335 25.947 10.388 25.9403 10.4327 25.9603C17.3062 29.0972 24.7477 29.0972 31.5402 25.9603C31.5849 25.9386 31.6379 25.9453 31.6776 25.9769C31.8879 26.1502 32.1081 26.3234 32.3299 26.4884C32.406 26.545 32.401 26.6633 32.3183 26.7116C31.272 27.323 30.1843 27.8394 29.0404 28.2709C28.9659 28.2992 28.9328 28.3858 28.9692 28.4575C29.5999 29.6786 30.3201 30.8414 31.1131 31.9442C31.1462 31.9909 31.2058 32.0108 31.2604 31.9942C34.6922 30.933 38.1721 29.3321 41.7645 26.695C41.796 26.6717 41.8158 26.6367 41.8192 26.5983C42.6949 17.5424 40.3524 9.67608 35.6094 2.70259C35.5978 2.67929 35.578 2.66262 35.5548 2.65263ZM14.035 21.8272C11.9656 21.8272 10.2605 19.9281 10.2605 17.5958C10.2605 15.2635 11.9326 13.3644 14.035 13.3644C16.154 13.3644 17.8427 15.2802 17.8095 17.5958C17.8095 19.9281 16.1375 21.8272 14.035 21.8272ZM27.9908 21.8272C25.9215 21.8272 24.2163 19.9281 24.2163 17.5958C24.2163 15.2635 25.8883 13.3644 27.9908 13.3644C30.1099 13.3644 31.7984 15.2802 31.7654 17.5958C31.7654 19.9281 30.1099 21.8272 27.9908 21.8272Z" fill="white"/>
</svg>
