<svg width="32" height="32" viewBox="0 0 32 32" fill="none" xmlns="http://www.w3.org/2000/svg">
<g clip-path="url(#clip0_225_133)">
<path fill-rule="evenodd" clip-rule="evenodd" d="M15.9998 0C7.16425 0 0 7.34465 0 16.4051C0 23.6531 4.58469 29.8024 10.9414 31.9716C11.7413 32.1237 12.0351 31.6158 12.0351 31.1826C12.0351 30.7915 12.0202 29.499 12.013 28.1281C7.56188 29.1206 6.6229 26.1928 6.6229 26.1928C5.89482 24.2968 4.84625 23.7924 4.84625 23.7924C3.39433 22.7742 4.95562 22.7948 4.95562 22.7948C6.56228 22.9109 7.408 24.4856 7.408 24.4856C8.83534 26.9936 11.1512 26.2686 12.0643 25.8494C12.208 24.7893 12.6224 24.0651 13.08 23.6557C9.52633 23.2414 5.79075 21.8344 5.79075 15.5484C5.79075 13.7576 6.4156 12.2939 7.43895 11.1453C7.27298 10.7319 6.72528 9.06329 7.59431 6.80372C7.59431 6.80372 8.93771 6.36254 11.9946 8.48519C13.2712 8.12182 14.6399 7.9397 15.9996 7.93318C17.3593 7.9397 18.7292 8.12182 20.0077 8.48519C23.0617 6.36275 24.4034 6.8035 24.4034 6.8035C25.2741 9.06286 24.7266 10.7315 24.5602 11.1447C25.5861 12.2935 26.2067 13.757 26.2067 15.5478C26.2067 21.8492 22.4639 23.2362 18.9013 23.6424C19.4751 24.1518 19.9865 25.15 19.9865 26.6807C19.9865 28.8757 19.9683 30.6426 19.9683 31.1826C19.9683 31.6195 20.256 32.1306 21.0669 31.9698C27.4215 29.7983 31.9998 23.6511 31.9998 16.4053C31.9998 7.34465 24.8353 0 15.9998 0Z" fill="white"/>
<path d="M6.06159 23.553C6.02619 23.6347 5.90114 23.6595 5.78731 23.603C5.67073 23.5495 5.60608 23.4382 5.6436 23.3565C5.67815 23.2728 5.80321 23.2496 5.91915 23.3054C6.03531 23.3591 6.10144 23.4713 6.06159 23.553ZM6.70787 24.2945C6.63156 24.3671 6.48213 24.3336 6.38144 24.2189C6.27631 24.1043 6.25702 23.9511 6.33439 23.8777C6.41281 23.8053 6.5578 23.8392 6.66229 23.9537C6.76722 24.0694 6.78778 24.2211 6.70787 24.2945ZM7.33867 25.2399C7.24053 25.3101 7.08007 25.2447 6.98087 25.0986C6.88274 24.9526 6.88274 24.7776 6.98299 24.7074C7.08262 24.6375 7.24053 24.7009 7.34121 24.8452C7.43871 24.9937 7.43871 25.1684 7.33867 25.2399ZM8.20496 26.1529C8.11721 26.252 7.93047 26.2253 7.79375 26.0899C7.65386 25.9578 7.61485 25.77 7.70261 25.6709C7.79163 25.5716 7.97943 25.5992 8.11721 25.7339C8.25604 25.8656 8.29822 26.0547 8.20496 26.1529ZM9.39725 26.6826C9.35825 26.8108 9.17893 26.8695 8.99749 26.8145C8.81626 26.7584 8.69777 26.608 8.73465 26.4783C8.77196 26.349 8.95297 26.2881 9.13526 26.3466C9.31607 26.4024 9.43498 26.5519 9.39725 26.6826ZM10.7061 26.7804C10.7104 26.9158 10.5569 27.0281 10.367 27.0303C10.1754 27.0346 10.0204 26.9251 10.0183 26.7921C10.0183 26.6552 10.1688 26.5443 10.3596 26.5411C10.5503 26.5367 10.7061 26.646 10.7061 26.7801M11.9249 26.5685C11.9476 26.7002 11.8155 26.8358 11.6265 26.8719C11.4408 26.9071 11.2689 26.8253 11.2454 26.6947C11.222 26.5593 11.3566 26.4239 11.5421 26.3889C11.7314 26.355 11.9007 26.4344 11.9249 26.5685Z" fill="white"/>
</g>
<defs>
<clipPath id="clip0_225_133">
<rect width="32" height="32" fill="white"/>
</clipPath>
</defs>
</svg>
