<svg width="64" height="35" viewBox="0 0 64 35" fill="none" xmlns="http://www.w3.org/2000/svg">
<rect y="0.205887" width="34.5879" height="34.5882" fill="#6E56CF"/>
<path d="M58.2584 25.5298C57.1516 25.5298 56.1447 25.2993 55.2377 24.8381C54.3461 24.3769 53.639 23.7082 53.1163 22.832C52.5937 21.9557 52.3323 20.895 52.3323 19.6498V19.327C52.3323 18.0818 52.5937 17.0211 53.1163 16.1449C53.639 15.2687 54.3461 14.6 55.2377 14.1388C56.1447 13.6776 57.1516 13.447 58.2584 13.447C59.3498 13.447 60.2875 13.6392 61.0715 14.0235C61.8555 14.4078 62.4858 14.9382 62.9623 15.6146C63.4543 16.2756 63.7771 17.0288 63.9308 17.8743L61.1177 18.4738C61.0562 18.0127 60.9178 17.5976 60.7026 17.2287C60.4874 16.8597 60.1799 16.5677 59.7803 16.3524C59.3959 16.1372 58.9117 16.0296 58.3276 16.0296C57.7434 16.0296 57.2131 16.1603 56.7365 16.4216C56.2754 16.6676 55.9064 17.0442 55.6297 17.5515C55.3684 18.0434 55.2377 18.6506 55.2377 19.3731V19.6037C55.2377 20.3262 55.3684 20.9411 55.6297 21.4484C55.9064 21.9404 56.2754 22.317 56.7365 22.5783C57.2131 22.8243 57.7434 22.9473 58.3276 22.9473C59.2038 22.9473 59.8648 22.7244 60.3106 22.2786C60.7718 21.8174 61.0638 21.2178 61.1868 20.48L64 21.1487C63.8001 21.9634 63.4543 22.709 62.9623 23.3854C62.4858 24.0464 61.8555 24.5691 61.0715 24.9534C60.2875 25.3377 59.3498 25.5298 58.2584 25.5298Z" fill="#FAFAF9"/>
<path d="M46.3516 25.4967V14.0595H47.8043H49.257V25.4967H46.3516ZM47.8043 12.7221C47.2816 12.7221 46.8358 12.553 46.4669 12.2148C46.1133 11.8766 45.9365 11.4308 45.9365 10.8774C45.9365 10.324 46.1133 9.87818 46.4669 9.53999C46.8358 9.20179 47.2816 9.03269 47.8043 9.03269C48.3423 9.03269 48.7881 9.20179 49.1417 9.53999C49.4952 9.87818 49.672 10.324 49.672 10.8774C49.672 11.4308 49.4952 11.8766 49.1417 12.2148C48.7881 12.553 48.3423 12.7221 47.8043 12.7221Z" fill="#FAFAF9"/>
<path d="M40.3522 25.5347V9.39349H43.2576V25.5347H40.3522Z" fill="#FAFAF9"/>
<path d="M32.1556 25.5298C31.018 25.5298 30.0111 25.2916 29.1349 24.815C28.274 24.3231 27.5977 23.639 27.1057 22.7628C26.6292 21.8712 26.3909 20.8258 26.3909 19.6268V19.3501C26.3909 18.151 26.6292 17.1134 27.1057 16.2371C27.5823 15.3455 28.251 14.6615 29.1118 14.1849C29.9727 13.693 30.9719 13.447 32.1095 13.447C33.2316 13.447 34.2078 13.7007 35.0379 14.208C35.868 14.6999 36.5136 15.3916 36.9748 16.2833C37.436 17.1595 37.6666 18.1818 37.6666 19.3501V20.3416H29.3424C29.3732 21.1256 29.6652 21.7636 30.2187 22.2555C30.7721 22.7474 31.4484 22.9934 32.2478 22.9934C33.0625 22.9934 33.6621 22.8166 34.0464 22.463C34.4307 22.1095 34.7228 21.7175 34.9226 21.287L37.2976 22.5322C37.0824 22.9319 36.7673 23.37 36.3522 23.8466C35.9526 24.3077 35.4145 24.7074 34.7381 25.0456C34.0617 25.3684 33.2009 25.5298 32.1556 25.5298ZM29.3655 18.1741H34.7151C34.6536 17.5131 34.3846 16.9827 33.908 16.583C33.4469 16.1833 32.8396 15.9835 32.0864 15.9835C31.3024 15.9835 30.6798 16.1833 30.2187 16.583C29.7575 16.9827 29.4731 17.5131 29.3655 18.1741Z" fill="#FAFAF9"/>
<path d="M11.2577 25.5346V9.39346H18.2675C19.2821 9.39346 20.166 9.57024 20.9192 9.92381C21.6725 10.2774 22.2566 10.777 22.6717 11.4226C23.0867 12.0683 23.2943 12.8292 23.2943 13.7055V13.9822C23.2943 14.9506 23.0637 15.7346 22.6025 16.3342C22.1413 16.9337 21.5726 17.3718 20.8962 17.6485V18.0636C21.5111 18.0943 21.9876 18.3095 22.3258 18.7092C22.664 19.0935 22.8331 19.6085 22.8331 20.2542L23.2943 25.5346H19.7894V20.6923C19.7894 20.3233 19.6894 20.0236 19.4896 19.793C19.3051 19.5624 18.99 19.4471 18.5442 19.4471H14.3014V25.5346H11.2577ZM14.3014 16.68H17.9447C18.6672 16.68 19.2283 16.4879 19.628 16.1036C20.043 15.7039 20.2505 15.1812 20.2505 14.5356V14.305C20.2505 13.6593 20.0507 13.1444 19.651 12.76C19.2513 12.3604 18.6826 12.1605 17.9447 12.1605H14.3014V16.68Z" fill="#FAFAF9"/>
</svg>
