<svg width="256" height="103" viewBox="0 0 256 103" fill="none" xmlns="http://www.w3.org/2000/svg">
<path d="M0 103V30.2949H14.7893V38.8485H17.1321C18.3036 35.8007 20.1583 33.5886 22.6964 32.2121C25.3321 30.7374 28.5536 30 32.3607 30H41V43.7152H31.775C26.894 43.7152 22.8917 45.0916 19.7679 47.8444C16.644 50.499 15.0821 54.6283 15.0821 60.2323V103H0Z" fill="#FAFAF9"/>
<path d="M86.1901 103C78.7521 103 72.2562 101.473 66.7025 98.4184C61.1488 95.2655 56.7851 90.881 53.6116 85.2649C50.5372 79.5502 49 72.9488 49 65.4607V63.6871C49 56.1004 50.5372 49.499 53.6116 43.8829C56.686 38.1683 60.9504 33.7838 66.405 30.7294C71.9587 27.5765 78.3554 26 85.595 26C92.6364 26 98.7851 27.5765 104.041 30.7294C109.397 33.7838 113.562 38.0697 116.537 43.5873C119.512 49.1049 121 55.5585 121 62.9482V68.7121H64.6198C64.8182 75.1164 66.9504 80.2399 71.0165 84.0825C75.1818 87.8266 80.3388 89.6986 86.4876 89.6986C92.2397 89.6986 96.5537 88.4178 99.4298 85.856C102.405 83.2943 104.686 80.3385 106.273 76.9885L118.917 83.4914C117.529 86.2502 115.496 89.1567 112.818 92.2111C110.24 95.2655 106.818 97.8273 102.554 99.8964C98.2893 101.965 92.8347 103 86.1901 103ZM64.7686 57.0365H105.38C104.983 51.5189 103 47.2329 99.4298 44.1785C95.8595 41.0256 91.1983 39.4491 85.4463 39.4491C79.6942 39.4491 74.9835 41.0256 71.3141 44.1785C67.7438 47.2329 65.562 51.5189 64.7686 57.0365Z" fill="#FAFAF9"/>
<path d="M129 103V0H145V103H129Z" fill="#FAFAF9"/>
<path d="M155.944 103V30.4586H171.901V103H155.944ZM164 20.6C160.901 20.6 158.268 19.6681 156.099 17.8043C154.033 15.8424 153 13.341 153 10.3C153 7.25905 154.033 4.80667 156.099 2.94286C158.268 0.980952 160.901 0 164 0C167.202 0 169.836 0.980952 171.901 2.94286C173.967 4.80667 175 7.25905 175 10.3C175 13.341 173.967 15.8424 171.901 17.8043C169.836 19.6681 167.202 20.6 164 20.6Z" fill="#FAFAF9"/>
<path d="M220.161 103C213.209 103 206.893 101.522 201.213 98.5662C195.632 95.6104 191.176 91.3244 187.847 85.7083C184.616 80.0921 183 73.3429 183 65.4606V63.5393C183 55.6571 184.616 48.9571 187.847 43.4395C191.176 37.8234 195.632 33.5374 201.213 30.5816C206.893 27.5272 213.209 26 220.161 26C227.113 26 233.038 27.2809 237.934 29.8426C242.83 32.4043 246.746 35.8036 249.684 40.0403C252.72 44.277 254.678 48.9571 255.559 54.0806L240.871 57.1843C240.382 53.9328 239.353 50.977 237.787 48.3167C236.22 45.6564 234.017 43.5381 231.177 41.9616C228.337 40.3852 224.763 39.5969 220.455 39.5969C216.244 39.5969 212.425 40.5822 208.998 42.5528C205.669 44.4248 203.025 47.1836 201.066 50.8292C199.108 54.3762 198.129 58.7114 198.129 63.8349V65.1651C198.129 70.2885 199.108 74.6731 201.066 78.3186C203.025 81.9642 205.669 84.723 208.998 86.595C212.425 88.467 216.244 89.4031 220.455 89.4031C226.82 89.4031 231.667 87.7774 234.996 84.5259C238.325 81.1759 240.431 76.9392 241.312 71.8157L256 75.215C254.825 80.2399 252.72 84.8708 249.684 89.1075C246.746 93.3442 242.83 96.7434 237.934 99.3052C233.038 101.768 227.113 103 220.161 103Z" fill="#FAFAF9"/>
</svg>
