<svg width="450" height="103" viewBox="0 0 450 103" fill="none" xmlns="http://www.w3.org/2000/svg">
<path d="M0 103V30.2949H14.7893V38.8485H17.1321C18.3036 35.8007 20.1583 33.5886 22.6964 32.2121C25.3321 30.7374 28.5536 30 32.3607 30H41V43.7152H31.775C26.894 43.7152 22.8917 45.0916 19.7679 47.8444C16.644 50.499 15.0821 54.6283 15.0821 60.2323V103H0Z" fill="#0E0E0E"/>
<path d="M86.1901 103C78.7521 103 72.2562 101.473 66.7025 98.4184C61.1488 95.2655 56.7851 90.881 53.6116 85.2649C50.5372 79.5502 49 72.9488 49 65.4607V63.6871C49 56.1004 50.5372 49.499 53.6116 43.8829C56.686 38.1683 60.9504 33.7838 66.405 30.7294C71.9587 27.5765 78.3554 26 85.595 26C92.6364 26 98.7851 27.5765 104.041 30.7294C109.397 33.7838 113.562 38.0697 116.537 43.5873C119.512 49.1049 121 55.5585 121 62.9482V68.7121H64.6198C64.8182 75.1164 66.9504 80.2399 71.0165 84.0825C75.1818 87.8266 80.3388 89.6987 86.4876 89.6987C92.2397 89.6987 96.5537 88.4178 99.4298 85.856C102.405 83.2943 104.686 80.3385 106.273 76.9885L118.917 83.4914C117.529 86.2502 115.496 89.1567 112.818 92.2111C110.24 95.2655 106.818 97.8273 102.554 99.8963C98.2893 101.965 92.8347 103 86.1901 103ZM64.7686 57.0365H105.38C104.983 51.5189 103 47.2329 99.4298 44.1785C95.8595 41.0256 91.1983 39.4491 85.4463 39.4491C79.6942 39.4491 74.9835 41.0256 71.3141 44.1785C67.7438 47.2329 65.562 51.5189 64.7686 57.0365Z" fill="#0E0E0E"/>
<path d="M129 103V0H145V103H129Z" fill="#0E0E0E"/>
<path d="M155.944 103V30.4586H171.901V103H155.944ZM164 20.6C160.901 20.6 158.268 19.6681 156.099 17.8043C154.033 15.8424 153 13.341 153 10.3C153 7.25905 154.033 4.80667 156.099 2.94286C158.268 0.980953 160.901 0 164 0C167.202 0 169.836 0.980953 171.901 2.94286C173.967 4.80667 175 7.25905 175 10.3C175 13.341 173.967 15.8424 171.901 17.8043C169.836 19.6681 167.202 20.6 164 20.6Z" fill="#0E0E0E"/>
<path d="M220.161 103C213.209 103 206.893 101.522 201.213 98.5662C195.632 95.6104 191.176 91.3244 187.847 85.7083C184.616 80.0921 183 73.3429 183 65.4607V63.5393C183 55.6571 184.616 48.9571 187.847 43.4395C191.176 37.8234 195.632 33.5374 201.213 30.5816C206.893 27.5272 213.209 26 220.161 26C227.113 26 233.038 27.2809 237.934 29.8426C242.83 32.4043 246.746 35.8036 249.684 40.0403C252.72 44.277 254.678 48.9571 255.559 54.0806L240.871 57.1843C240.382 53.9328 239.353 50.977 237.787 48.3167C236.22 45.6564 234.017 43.5381 231.177 41.9616C228.337 40.3852 224.763 39.5969 220.455 39.5969C216.244 39.5969 212.425 40.5822 208.998 42.5528C205.669 44.4248 203.025 47.1836 201.066 50.8292C199.108 54.3762 198.129 58.7114 198.129 63.8349V65.1651C198.129 70.2885 199.108 74.6731 201.066 78.3186C203.025 81.9642 205.669 84.723 208.998 86.595C212.425 88.467 216.244 89.4031 220.455 89.4031C226.82 89.4031 231.667 87.7774 234.996 84.5259C238.325 81.1759 240.431 76.9392 241.312 71.8157L256 75.215C254.825 80.2399 252.72 84.8708 249.684 89.1075C246.746 93.3442 242.83 96.7434 237.934 99.3052C233.038 101.768 227.113 103 220.161 103Z" fill="#0E0E0E"/>
<rect width="170" height="103" transform="translate(280)" fill="#0E0E0E"/>
<path d="M414.817 74.604C411.916 74.604 409.398 74.1133 407.265 73.132C405.174 72.108 403.532 70.764 402.337 69.1C401.142 67.3933 400.46 65.4946 400.289 63.404L404.705 63.084C405.004 65.3453 406.006 67.1586 407.713 68.524C409.42 69.8893 411.788 70.572 414.817 70.572C417.718 70.572 419.916 70.124 421.409 69.228C422.945 68.332 423.713 66.988 423.713 65.196C423.713 64.1293 423.457 63.2333 422.945 62.508C422.476 61.7826 421.537 61.164 420.129 60.652C418.721 60.0973 416.609 59.5853 413.793 59.116C410.508 58.5186 407.948 57.8146 406.113 57.004C404.321 56.1506 403.062 55.084 402.337 53.804C401.654 52.524 401.313 50.988 401.313 49.196C401.313 47.2333 401.804 45.5053 402.785 44.012C403.766 42.5186 405.174 41.3453 407.009 40.492C408.886 39.5959 411.169 39.1479 413.857 39.1479C416.588 39.1479 418.87 39.6386 420.705 40.6199C422.582 41.6013 424.054 42.9026 425.121 44.5239C426.23 46.1026 426.956 47.8519 427.297 49.7719L422.881 50.156C422.625 48.8333 422.113 47.66 421.345 46.636C420.62 45.5693 419.617 44.7373 418.337 44.14C417.1 43.5 415.585 43.18 413.793 43.18C411.105 43.18 409.078 43.7346 407.713 44.844C406.348 45.9533 405.665 47.404 405.665 49.196C405.665 50.476 405.942 51.5 406.497 52.268C407.052 53.036 407.99 53.6546 409.313 54.124C410.678 54.5933 412.534 55.02 414.881 55.404C418.294 55.916 420.961 56.5986 422.881 57.452C424.801 58.3053 426.145 59.3506 426.913 60.588C427.681 61.8253 428.065 63.3613 428.065 65.196C428.065 67.1586 427.51 68.844 426.401 70.252C425.292 71.66 423.734 72.748 421.729 73.516C419.766 74.2413 417.462 74.604 414.817 74.604Z" fill="#FAFAF9"/>
<path d="M383.1 74.604C379.942 74.604 377.212 73.8573 374.908 72.364C372.646 70.828 370.918 68.7373 369.724 66.092C368.529 63.404 367.932 60.332 367.932 56.876C367.932 53.42 368.529 50.3693 369.724 47.724C370.918 45.036 372.646 42.9453 374.908 41.452C377.212 39.9159 379.942 39.1479 383.1 39.1479C385.574 39.1479 387.75 39.6173 389.628 40.556C391.548 41.4946 393.105 42.8386 394.3 44.588C395.537 46.3373 396.412 48.4066 396.924 50.796L392.508 51.052C391.91 48.5346 390.78 46.5933 389.116 45.228C387.494 43.8626 385.489 43.18 383.1 43.18C379.772 43.18 377.148 44.4173 375.228 46.892C373.308 49.324 372.348 52.652 372.348 56.876C372.348 61.1 373.308 64.4493 375.228 66.924C377.148 69.356 379.772 70.572 383.1 70.572C385.489 70.572 387.537 69.8466 389.244 68.396C390.993 66.9026 392.145 64.7693 392.7 61.996L397.116 62.316C396.646 64.7906 395.772 66.9453 394.492 68.78C393.212 70.6146 391.612 72.044 389.692 73.068C387.772 74.092 385.574 74.604 383.1 74.604Z" fill="#FAFAF9"/>
<path d="M350.228 74.604C347.156 74.604 344.489 73.8786 342.228 72.428C340.009 70.9773 338.281 68.9293 337.043 66.284C335.806 63.596 335.188 60.46 335.188 56.876C335.188 53.2493 335.806 50.1133 337.043 47.4679C338.281 44.8226 340.009 42.7746 342.228 41.324C344.489 39.8733 347.156 39.1479 350.228 39.1479C353.3 39.1479 355.966 39.8733 358.228 41.324C360.489 42.7746 362.217 44.8226 363.411 47.4679C364.649 50.1133 365.268 53.2493 365.268 56.876C365.268 60.46 364.649 63.596 363.411 66.284C362.217 68.9293 360.489 70.9773 358.228 72.428C355.966 73.8786 353.3 74.604 350.228 74.604ZM350.228 70.572C353.556 70.572 356.158 69.356 358.035 66.924C359.913 64.4493 360.852 61.1 360.852 56.876C360.852 52.652 359.913 49.324 358.035 46.892C356.158 44.4173 353.556 43.18 350.228 43.18C346.9 43.18 344.297 44.4173 342.419 46.892C340.542 49.324 339.604 52.652 339.604 56.876C339.604 61.1 340.542 64.4493 342.419 66.924C344.297 69.356 346.9 70.572 350.228 70.572Z" fill="#FAFAF9"/>
<path d="M316.334 74.604C313.39 74.604 310.83 73.8787 308.654 72.428C306.52 70.9773 304.856 68.9293 303.662 66.284C302.51 63.6387 301.934 60.5027 301.934 56.876C301.934 53.2493 302.51 50.1133 303.662 47.468C304.856 44.8227 306.52 42.7747 308.654 41.324C310.83 39.8733 313.39 39.148 316.334 39.148C318.851 39.148 321.048 39.8093 322.926 41.132C324.846 42.4547 326.211 44.0333 327.022 45.868V28.396H331.246V73.836H327.534L327.342 67.564C326.403 69.6547 324.974 71.3613 323.054 72.684C321.134 73.964 318.894 74.604 316.334 74.604ZM316.526 70.572C318.702 70.572 320.558 70.0173 322.094 68.908C323.672 67.756 324.888 66.156 325.742 64.108C326.595 62.0173 327.022 59.6067 327.022 56.876C327.022 54.1027 326.595 51.692 325.742 49.644C324.888 47.596 323.672 46.0173 322.094 44.908C320.515 43.756 318.638 43.18 316.462 43.18C313.39 43.18 310.936 44.4173 309.102 46.892C307.267 49.324 306.35 52.652 306.35 56.876C306.35 61.1 307.267 64.4493 309.102 66.924C310.936 69.356 313.411 70.572 316.526 70.572Z" fill="#FAFAF9"/>
</svg>
